<?xml version="1.0" standalone="no"?>
<!DOCTYPE svg PUBLIC "-//W3C//DTD SVG 1.1//EN" "http://www.w3.org/Graphics/SVG/1.1/DTD/svg11.dtd" >
<svg xmlns="http://www.w3.org/2000/svg">
<metadata></metadata>
<defs>
<font id="HarabaraRegular" horiz-adv-x="1380" >
<font-face units-per-em="2048" ascent="1636" descent="-412" />
<missing-glyph horiz-adv-x="460" />
<glyph horiz-adv-x="0" />
<glyph horiz-adv-x="2048" />
<glyph unicode="&#xd;" horiz-adv-x="2048" />
<glyph unicode=" "  horiz-adv-x="460" />
<glyph unicode="&#x09;" horiz-adv-x="460" />
<glyph unicode="&#xa0;" horiz-adv-x="460" />
<glyph unicode="!" horiz-adv-x="296" d="M0 1232q0 60 42 102t102 42h140l-48 -988h-188zM4 0v172q0 104 104 104h172v-276h-276z" />
<glyph unicode="&#x22;" horiz-adv-x="688" d="M0 904v224q0 240 256 288v-48q0 -24 -12 -36t-48 -36q-20 -8 -48 -38t-30 -62t2 -44t40 -12h92v-148q0 -88 -92 -88h-160zM400 904v224q0 240 256 288v-48q0 -36 -64 -72q-70 -35 -76 -120q-12 -36 40 -36h96v-148q0 -88 -96 -88h-156z" />
<glyph unicode="#" horiz-adv-x="1596" d="M0 332l44 132q16 52 66 90t102 38h176l64 196h-300l44 132q16 48 66 86t102 42h176l112 328h80q112 0 126 -74t2 -122l-48 -132h188l112 328h84q120 0 128 -74t-4 -122l-44 -132h244l-88 -260h-244l-64 -196h244l-84 -260h-248l-112 -332h-272l108 332h-184l-112 -332 h-276l112 332h-300zM660 592h188l64 196h-184z" />
<glyph unicode="$" horiz-adv-x="1132" d="M-24 436h272q24 -180 204 -212v368h-4l-8 4l-28 4q-196 40 -272 96q-144 76 -144 308q0 374 456 408v172h4q60 0 102 -42t42 -102v-28q184 -20 292 -108q132 -116 140 -320h-160q-92 0 -128 84q-16 32 -56 68q-48 28 -88 40v-340q72 -24 122 -36q109 -26 189.5 -71 t128.5 -121q40 -76 40 -184q0 -212 -144 -332q-116 -92 -336 -108v-172h-148v172q-204 12 -332 120t-144 332zM264 1020q0 -104 188 -148v312q-188 -18 -188 -164zM600 216q84 4 144 44t60 130t-204 162v-336z" />
<glyph unicode="%" horiz-adv-x="1332" d="M0 1042q0 118 82 200t200 82t202 -82t84 -200t-84 -200t-202 -82t-200 82t-82 200zM124 0l764 1320q24 44 58 50t78 6h124l-796 -1376h-228zM144 1042q0 -58 40 -98t98 -40t100 40t42 98t-42 98t-100 40t-98 -40t-40 -98zM708 334q0 -118 80 -200t200 -82t202 82t82 200 t-82 202t-202 84t-200 -84t-80 -202zM852 334q0 58 38 100t98 42t100 -42t40 -100t-40 -98t-100 -40t-98 40t-38 98z" />
<glyph unicode="&#x26;" horiz-adv-x="1264" d="M-24 364q0 132 64 228q68 96 224 180l-56 72q-80 95 -80 208q0 152 100 236q96 92 256 92t252 -82t92 -206t-52 -204q-60 -84 -172 -152l200 -244q24 44 44 100q12 76 20 128h144q64 0 76 -36t8 -68q-12 -56 -32 -120q-48 -108 -112 -192l252 -304h-320l-92 116 q-108 -98 -180 -116q-132 -28 -276 -16t-244 92q-116 108 -116 288zM240 397q0 -89 56 -145t124 -56q132 0 228 96l-248 312l-72 -52q-88 -66 -88 -155zM372 1090q0 -30 16 -70q4 -20 16 -36q24 -32 68 -88l36 24q88 64 88 156q0 48 -30 76t-82 28t-82 -30t-30 -60z" />
<glyph unicode="'" horiz-adv-x="392" d="M0 1164l112 204q32 48 84 48h180l-244 -252h-132z" />
<glyph unicode="(" horiz-adv-x="520" d="M-24 676q0 387 240 756q72 112 170 118t110 6q-252 -420 -252 -884t252 -876h-196q-324 435 -324 880z" />
<glyph unicode=")" horiz-adv-x="552" d="M0 -200q128 216 192 420q60 220 60 458t-60 454q-68 220 -192 428h196q332 -470 332 -884q0 -375 -248 -752q-72 -112 -170 -118t-110 -6z" />
<glyph unicode="*" horiz-adv-x="480" d="M0 1200l16 48q12 52 64 40l96 -28v100q0 52 56 52h48v-152l100 28q48 16 64 -40l16 -48l-144 -40l56 -80q28 -48 -16 -76l-44 -28l-84 120l-56 -76q-36 -44 -76 -8l-40 28l84 120z" />
<glyph unicode="+" horiz-adv-x="948" d="M0 440v96q0 88 88 88h272v360h96q88 0 88 -88v-272h360v-184h-360v-360h-184v360h-360z" />
<glyph unicode="," horiz-adv-x="232" d="M0 -208q0 32 56 64q20 12 36 32q28 44 28 84q8 28 -36 28h-80v136q0 84 84 84h136v-212q0 -100 -56 -176q-64 -64 -168 -84v44z" />
<glyph unicode="-" horiz-adv-x="576" d="M0 420v116q0 108 108 108h444v-224h-552z" />
<glyph unicode="." horiz-adv-x="228" d="M0 0v136q0 84 84 84h136v-220h-220z" />
<glyph unicode="/" horiz-adv-x="588" d="M0 0l404 1380h156l-388 -1328q-16 -52 -72 -52h-100z" />
<glyph unicode="0" horiz-adv-x="1044" d="M-24 688q0 712 504 712q228 0 364 -148q152 -172 152 -568t-156 -564q-124 -140 -356 -140t-372 152q-136 152 -136 556zM260 686q0 -150 30 -282t98 -176q44 -32 94 -32t102 32q60 44 92 176t32 280t-34 280t-94 180q-40 32 -98 32t-98 -32q-60 -48 -92 -178t-32 -280z " />
<glyph unicode="1" horiz-adv-x="560" d="M0 928v200q88 0 182 58t130 190h80q60 0 102 -40t42 -100v-1236h-276v928h-260z" />
<glyph unicode="2" horiz-adv-x="1024" d="M-24 0q0 192 88 334t256 258q12 8 36 22t106 66t154 124t72 160t-56 142t-158 54t-162 -68q-56 -72 -56 -188v-12h-144q-84 0 -98 46t-6 102q28 132 116 228q132 128 364 128t360 -116q128 -124 128 -320q0 -148 -68 -244q-72 -108 -264 -236q-68 -48 -170 -112 t-114 -124h604v-244h-988z" />
<glyph unicode="3" horiz-adv-x="1036" d="M-24 432v4h268q0 -116 58 -174t168 -58t162 56q60 52 60 156q0 208 -272 208h-19t-21 -4v192h28q244 0 244 192q0 76 -48 124t-144 48t-140 -52q-52 -52 -52 -156v-8h-144q-84 0 -100 46t-4 98q28 108 108 180q128 116 344 116t342 -104t126 -272q0 -92 -46 -162 t-126 -110q220 -106 220 -321t-138 -333t-382 -118t-368 114t-124 338z" />
<glyph unicode="4" horiz-adv-x="1092" d="M0 308v248l524 820h208q60 0 100 -42t44 -98v-704h164v-224h-164v-308h-276v308h-600zM220 524h384v608z" />
<glyph unicode="5" horiz-adv-x="1036" d="M-24 400h272q4 -96 60 -146t152 -50q236 0 236 260q0 120 -64 184q-60 68 -172 68q-60 0 -110 -26t-74 -70l-256 12l92 748h672q56 -4 98 -44t42 -100v-96h-612l-36 -268q36 32 102 52t138 20q212 0 342 -130t130 -348t-142 -352t-378 -134t-360 110t-132 310z" />
<glyph unicode="6" horiz-adv-x="1044" d="M-24 668q0 352 142 542t410 190q188 0 304 -96q112 -100 128 -260h-208q-40 0 -62 24t-46 52q-24 20 -56 40t-92 20q-104 0 -164 -90t-64 -274q44 44 116 72q84 28 152 28q204 0 336 -124q124 -132 124 -338t-136 -346q-136 -128 -380 -128t-376 168q-128 168 -128 520z M272 452q0 -112 58 -182t164 -70t158 68q56 68 56 184t-58 176t-160 60t-162 -60q-56 -64 -56 -176z" />
<glyph unicode="7" horiz-adv-x="1104" d="M0 1136v240h912q108 0 124 -78t-32 -134q-246 -280 -356 -544q-132 -300 -148 -620h-296q8 280 140 576q116 276 352 560h-696z" />
<glyph unicode="8" horiz-adv-x="1040" d="M-24 408q0 112 42 190t150 138l12 4q-16 0 -16 8q-156 83 -156 280q0 104 60 192q18 40 54 64q6 4 10 8q132 104 332 104l16 4h4l12 -4q200 0 332 -104q27 -14 77.5 -87t48.5 -177q-4 -203 -158 -280q-4 -4 -12 -8l12 -4q104 -60 152 -140q44 -84 44 -188 q0 -208 -134 -318t-370 -110h-12q-240 0 -372 108q-128 108 -128 320zM260 404q0 -84 60 -144q44 -48 120 -52h8q8 -4 28 -4h12q20 0 28 4h8q64 4 120 52q60 60 60 140t-32 128q-60 100 -188 100h-4q-136 0 -192 -100q-28 -40 -28 -124zM280 1006q0 -70 46 -116t152 -46 t154 46t48 116t-52 120t-148 50t-148 -50t-52 -120z" />
<glyph unicode="9" horiz-adv-x="1044" d="M-24 912q0 332 276 444q100 44 216 44q260 0 394 -176t134 -520t-144 -534t-416 -190q-192 0 -300 92q-108 84 -108 176q0 80 96 80h172q16 -132 176 -132q100 0 164 92q56 96 64 272q-44 -44 -116 -76q-56 -20 -152 -20q-212 0 -336 120q-120 120 -120 328zM256 924 q0 -112 58 -176t162 -64t160 64q36 36 50 108t-2 142t-68 124t-130 54q-125 0 -170 -68q-60 -72 -60 -184z" />
<glyph unicode=":" horiz-adv-x="228" d="M0 136v140q0 80 84 80h136v-220h-220zM0 708v136q0 84 84 84h136v-220h-220z" />
<glyph unicode=";" horiz-adv-x="232" d="M0 -208q0 32 56 64q20 12 36 32q28 44 28 84q8 28 -36 28h-80v136q0 84 84 84h136v-212q0 -100 -56 -176q-64 -64 -168 -84v44zM4 568v140q0 80 84 80h136v-220h-220z" />
<glyph unicode="&#x3c;" horiz-adv-x="876" d="M-24 690q0 94 80 134l780 428v-156q0 -16 -12 -42t-36 -38l-556 -304q-32 -24 0 -48l604 -324v-212l-784 424q-76 44 -76 138z" />
<glyph unicode="=" horiz-adv-x="948" d="M0 436v96q0 88 88 88h816v-184h-904zM0 748v96q0 88 88 88h816v-184h-904z" />
<glyph unicode="&#x3e;" horiz-adv-x="904" d="M0 128v156q0 12 10 40t34 40l560 300q32 24 0 48l-604 328v212l780 -428q84 -44 84 -136t-84 -132z" />
<glyph unicode="?" horiz-adv-x="936" d="M-24 1068q0 60 30 122q80 165 298 210q136 28 268 -4t226 -128t94 -246t-54 -222t-118 -122t-118 -100t-50 -142v-36h-252q0 132 22 206t142 170q60 48 102 96t42 120q0 160 -134 180t-194 -52q-52 -56 -56 -168q-108 0 -178 4t-70 112zM292 0v172q0 104 100 104h176 v-276h-276z" />
<glyph unicode="@" horiz-adv-x="1816" d="M-24 492q0 168 44 320q48 148 148 256q128 164 332 260q204 88 436 88q148 0 300 -44q136 -44 240 -120q124 -100 192 -228q64 -136 64 -286t-64 -284t-176 -222q-68 -56 -144 -84q-92 -28 -176 -28t-136 42t-52 118q-48 -76 -120 -120q-68 -36 -160 -36q-144 0 -224 82 t-80 238q0 224 132 376q128 152 324 152q76 0 128 -28q56 -36 92 -92l52 92q128 0 130 -64t-2 -80l-100 -420q-4 -8 -4 -20q-4 -8 -4 -16q0 -68 92 -68q28 0 76 22t76 50q164 164 164 392t-176 374t-448 146q-148 0 -254 -32t-202 -96q-156 -100 -244 -268 q-88 -156 -88 -352q0 -288 194 -458t522 -170q214 0 436 98q68 30 132 78q16 -28 2 -100t-86 -108q-232 -116 -480 -116q-367 0 -604 180q-148 116 -216 262t-68 314zM600 440q0 -80 38 -128t112 -48t142 60q60 48 88 152l52 204q-33 156 -164 156q-112 0 -190 -118 t-78 -278z" />
<glyph unicode="A" d="M0 0l456 1284q36 92 136 92h224l500 -1376h-300l-92 284h-536l-88 -284h-300zM464 516h384l-192 584z" />
<glyph unicode="B" horiz-adv-x="1184" d="M0 0v1232q0 60 42 102t102 42h504q212 0 324 -88q112 -96 112 -260q0 -200 -168 -284q212 -90 212 -324q0 -200 -128 -312q-132 -108 -372 -108h-628zM272 248h336q112 0 170 42t58 138t-54 138t-178 42h-332v-360zM272 844h324q104 0 152 36t48 112t-44 110t-160 34 h-320v-292z" />
<glyph unicode="C" horiz-adv-x="1288" d="M-24 692q0 356 170 540t494 184q264 0 416 -130t172 -362h-172q-96 0 -136 84q-28 52 -68 92q-80 60 -212 60q-184 0 -282 -120t-98 -348t96 -348q92 -124 276 -124q258 0 320 256h276q-20 -240 -180 -376q-164 -132 -432 -132q-312 0 -476 188q-164 180 -164 536z" />
<glyph unicode="D" horiz-adv-x="1224" d="M0 0v1232q0 60 42 102t102 42h396q316 0 472 -168q156 -176 156 -520q0 -184 -56 -332q-64 -152 -160 -226t-194 -102t-294 -28h-464zM276 248h228q196 0 286 100t90 336t-84 344q-80 108 -256 108h-264v-888z" />
<glyph unicode="E" horiz-adv-x="1048" d="M0 0v1232q0 60 42 102t102 42h856v-236h-720v-296h536v-92q0 -60 -42 -102t-102 -42h-392v-352h720v-256h-1000z" />
<glyph unicode="F" horiz-adv-x="1048" d="M0 0v1232q0 60 42 102t102 42h856v-236h-720v-296h536v-92q0 -60 -42 -102t-102 -42h-392v-608h-280z" />
<glyph unicode="G" horiz-adv-x="1308" d="M-24 690q0 334 176 530t472 196q256 0 424 -124q164 -132 196 -344h-192q-84 0 -124 76q-84 144 -292 144q-172 0 -272 -124q-100 -132 -100 -354t102 -348t286 -126q136 0 224 78t112 218h-168q-60 0 -102 42t-42 102v92h572v-748h-76q-112 0 -140 112l-12 52 q-72 -104 -172 -152q-104 -44 -228 -44q-296 0 -468 196q-176 192 -176 526z" />
<glyph unicode="H" horiz-adv-x="1196" d="M0 0v1232q0 60 42 102t102 42h140v-512h568v512h288v-1376h-288v612h-568v-612h-284z" />
<glyph unicode="I" horiz-adv-x="296" d="M0 0v1232q0 60 42 102t102 42h140v-1376h-284z" />
<glyph unicode="J" horiz-adv-x="924" d="M0 408v108h276v-168q0 -148 164 -148q84 0 124 44q32 40 32 172v816q0 60 44 102t104 42h136v-972q0 -132 -12 -192q-20 -68 -64 -122t-136 -90q-104 -32 -228 -32t-204 32q-84 20 -142 82t-76 126t-18 200z" />
<glyph unicode="K" horiz-adv-x="1284" d="M0 0v1232q0 60 42 102t102 42h140v-564l536 564h356l-552 -556l600 -820h-344l-348 488q-76 99 -142 99q-14 0 -28 -5q-78 -26 -78 -98v-484h-284z" />
<glyph unicode="L" horiz-adv-x="1000" d="M0 0v1232q0 60 42 102t102 42h140v-1120h672v-256h-956z" />
<glyph unicode="M" horiz-adv-x="1452" d="M0 0v1232q0 60 42 102t102 46h276l272 -1052l272 1052h420v-1380h-264v1112l-280 -1112h-292l-284 1112v-1112h-264z" />
<glyph unicode="N" horiz-adv-x="1192" d="M0 0v1232q0 60 42 102t102 46h152l560 -948v948h280v-1380h-292l-564 948v-948h-280z" />
<glyph unicode="O" d="M-24 688q0 336 176 532q188 196 490 196t494 -196q180 -200 180 -532t-180 -528q-184 -192 -494 -192t-490 192q-176 192 -176 528zM260 688q0 -232 100 -354t282 -122t286 126t104 350t-104 356q-104 124 -286 124t-282 -124t-100 -356z" />
<glyph unicode="P" horiz-adv-x="1104" d="M0 0v1232q0 60 42 102t102 42h468q440 0 440 -444q0 -208 -108 -328q-108 -112 -312 -112h-348v-492h-284zM284 740h276q112 0 160 48q52 44 52 144t-48 156q-56 48 -148 48h-292v-396z" />
<glyph unicode="Q" horiz-adv-x="1384" d="M-24 688q0 336 176 532q188 196 490 196t494 -196q180 -200 180 -518.5t-148 -489.5l152 -144l-76 -76q-35 -35 -73 -35q-5 0 -11 1q-44 6 -72 30l-80 72q-72 -52 -160 -68q-96 -24 -204 -24q-312 0 -492 192q-176 192 -176 528zM260 688q0 -232 100 -354t284 -122 q92 0 164 36l-144 140l48 52q32 36 86 44q14 2 26 2q37 0 64 -18l80 -64q28 52 48 128q4 36 10 74t6 82q0 224 -104 356q-104 124 -286 124t-282 -124t-100 -356z" />
<glyph unicode="R" horiz-adv-x="1192" d="M0 0v1232q0 60 42 102t102 42h524q444 0 444 -388q0 -128 -56 -212q-48 -80 -152 -116q92 -32 128 -94t44 -206l8 -164v-52q0 -115 52 -144h-312q-32 64 -32 172l-4 148q-8 120 -48 172q-44 44 -156 44h-300v-536h-284zM284 776h332q108 0 160 44t52 136t-52 136 q-48 48 -144 48h-348v-364z" />
<glyph unicode="S" horiz-adv-x="1176" d="M0 428h280q16 -120 92 -168q80 -56 220 -56q252 0 252 172q0 128 -360 208l-8 4l-32 8q-204 44 -272 92q-80 44 -112 128q-40 72 -40 184q0 196 136 306t388 110t384 -112q136 -124 144 -324h-160q-92 0 -132 84q-60 120 -252 120q-120 0 -172 -44q-60 -44 -60 -124 q0 -108 232 -160q68 -20 100 -24q84 -28 212 -60l112 -48q168 -101 168 -312.5t-144 -331.5q-144 -112 -412 -112t-404 116q-148 116 -160 344z" />
<glyph unicode="T" horiz-adv-x="1148" d="M0 1132v100q0 60 42 102t102 42h952v-244h-404v-1132h-284v1132h-408z" />
<glyph unicode="U" horiz-adv-x="1156" d="M0 488v740q0 60 42 106t102 46h144v-860q0 -160 60 -236q64 -72 202 -72t206 72q64 72 64 236v860h284v-892q0 -256 -144 -388q-132 -132 -408 -132t-408 132q-144 132 -144 388z" />
<glyph unicode="V" horiz-adv-x="1276" d="M0 1376h316l292 -1028l268 924q24 104 136 104h204l-468 -1376h-272z" />
<glyph unicode="W" horiz-adv-x="1840" d="M0 1376h292l236 -972l200 972h304l196 -972l212 868q24 104 140 104h176l-392 -1376h-272l-212 1056l-216 -1056h-268z" />
<glyph unicode="X" horiz-adv-x="1276" d="M0 0l432 704l-432 672h328l280 -480l240 412q40 68 124 68h244l-432 -672l432 -704h-324l-284 476l-280 -476h-328z" />
<glyph unicode="Y" horiz-adv-x="1296" d="M0 1376h348l292 -592l236 512q40 80 132 80h228l-452 -864v-512h-284v512z" />
<glyph unicode="Z" horiz-adv-x="1144" d="M0 0v240l748 888h-588q-60 0 -102 42t-42 102v104h1076v-240l-748 -888h732v-248h-1076z" />
<glyph unicode="[" horiz-adv-x="512" d="M0 -228v1836h488v-204h-228v-1424h228v-108q0 -92 -100 -100h-388z" />
<glyph unicode="\" horiz-adv-x="588" d="M0 1380h100q56 0 72 -56l388 -1324h-156z" />
<glyph unicode="]" horiz-adv-x="512" d="M0 -36h228v1428h-228v104q0 36 26 68t74 32h388v-1836h-488v204z" />
<glyph unicode="^" horiz-adv-x="588" d="M0 1180l128 152q64 84 150 84t154 -84l128 -152h-164l-120 136l-84 -92q-24 -24 -42 -34t-54 -10h-96z" />
<glyph unicode="_" horiz-adv-x="1092" d="M0 -192q0 48 32 82t80 34h928v-172h-1040v56z" />
<glyph unicode="`" horiz-adv-x="392" d="M0 1416h180q52 0 84 -48l112 -204h-132z" />
<glyph unicode="a" horiz-adv-x="916" d="M-24 310q0 174 98 246t250 96q20 0 48 6t64 10q176 24 176 104q0 60 -62 78t-114 18q-129 0 -164 -76h-268q16 124 118 210t314 86t326 -78t114 -222v-364q0 -160 -58 -250t-140 -132q-121 -62 -342 -62q-144 0 -252 78t-108 252zM236 316q0 -52 36 -86t104 -34 q112 0 176 64t64 176v100q-56 -28 -156 -52l-92 -20q-72 -20 -104 -52q-28 -44 -28 -96z" />
<glyph unicode="b" horiz-adv-x="1052" d="M0 464v916h136q56 0 96 -40t40 -96v-320q44 76 122 120t182 44q188 0 308 -156t120 -404t-120 -404q-60 -76 -162 -110t-202 -34q-192 0 -356 100t-164 384zM272 528q0 -156 58 -236t168 -80t170 84t60 236t-60 234t-168 82t-168 -82t-60 -238z" />
<glyph unicode="c" horiz-adv-x="984" d="M-24 534q0 262 126 408t360 146t366 -144q72 -88 104 -204h-280q-20 40 -40 60q-52 56 -148 56q-216 0 -216 -322t228 -322q68 0 116 28q12 4 22 14l22 22q35 52 104 52h200q-44 -168 -168 -258t-312 -90q-228 0 -356 146t-128 408z" />
<glyph unicode="d" horiz-adv-x="1024" d="M-24 526q0 254 118 408t312 154t298 -164v456h136q56 0 96 -42t40 -94v-780q0 -284 -164 -384t-356 -100q-104 0 -204 34t-160 110q-116 148 -116 402zM248 532q0 -152 60 -236t170 -84t170 84q56 84 56 236t-60 236q-64 80 -170 80t-166 -82t-60 -234z" />
<glyph unicode="e" horiz-adv-x="1000" d="M-24 534q0 262 126 408t360 146t366 -144q128 -148 128 -412v-44q0 -20 -4 -28h-692q4 -124 60 -184q52 -64 156 -64q68 0 116 28q12 4 22 14l22 22q4 12 30 32t74 20h200q-44 -168 -168 -258t-312 -90q-228 0 -356 146t-128 408zM260 640h408q-16 216 -204 216 q-88 0 -144 -56t-60 -160z" />
<glyph unicode="f" horiz-adv-x="464" d="M0 0v1096q0 144 74 214t238 70q40 0 64 -4q44 0 68 -4v-220h-72q-56 0 -78 -16t-22 -64v-72h172v-60q0 -60 -40 -98t-92 -38h-40v-804h-272z" />
<glyph unicode="g" horiz-adv-x="1024" d="M-24 550q0 230 114 384t366 154q192 0 356 -104t164 -384v-564q0 -280 -164 -382t-356 -102q-368 0 -456 344h292q32 -56 98 -86q45 -20 90 -20l42 4q66 14 120 78t62 192v68q-72 -112 -194 -140q-45 -10 -90 -10q-76 0 -152 30q-120 48 -206 178t-86 360zM248 524 q0 -276 160 -306q37 -7 69 -7q182 0 219 219q10 56 10 107q0 142 -74 243q-52 72 -152 72q-136 0 -184 -100t-48 -228z" />
<glyph unicode="h" horiz-adv-x="1040" d="M0 0v1376h136q56 0 96 -40t40 -96v-316q72 120 204 152q53 13 103 13q75 0 145 -29q116 -48 192 -152t76 -288v-620h-268v552q0 60 -10 110t-46 102q-60 84 -168 84t-168 -80t-60 -220v-548h-272z" />
<glyph unicode="i" horiz-adv-x="316" d="M24 0v1064h144q56 0 96 -40t40 -96v-928h-280zM24 1156v220h144q56 0 96 -40t40 -96v-84h-280z" />
<glyph unicode="j" horiz-adv-x="364" d="M-92 -212h52q64 0 64 72v1204h144q56 0 96 -40t40 -96v-1112q0 -136 -80 -198t-264 -62h-52v232zM24 1156v220h144q56 0 96 -40t40 -96v-84h-280z" />
<glyph unicode="k" horiz-adv-x="1008" d="M0 0v1376h144q56 0 96 -40t40 -92v-572l340 392h336l-380 -408l384 -656h-336l-196 360q-52 94 -92 94q-6 0 -12 -2q-44 -16 -44 -48v-404h-280z" />
<glyph unicode="l" horiz-adv-x="340" d="M12 0v1376h144q56 0 96 -38t40 -94v-1244h-280z" />
<glyph unicode="m" horiz-adv-x="1656" d="M0 0v624q0 272 142 364t314 100q220 0 340 -100q105 91 312 100q176 0 324 -92t148 -372v-624h-140q-60 0 -98 38t-38 98v544q0 96 -58 140t-130 44t-130 -44t-58 -140v-680h-276v680q0 96 -58 140t-130 44t-128 -44t-56 -140v-680h-280z" />
<glyph unicode="n" horiz-adv-x="972" d="M0 0v624q0 272 142 364t314 100q176 0 324 -92t148 -372v-624h-140q-60 0 -98 38t-38 98v544q0 96 -58 140t-130 44t-128 -44t-56 -140v-680h-280z" />
<glyph unicode="o" horiz-adv-x="1000" d="M-24 532q0 268 124 408q104 120 268 142q52 7 100 7q106 0 196 -33q152 -60 224 -208q68 -132 68 -284q0 -255 -100 -400q-96 -132 -244 -164q-72 -20 -145 -20q-60 0 -121 14q-134 30 -216 102t-118 194t-36 242zM248 526q8 -182 68 -254q24 -32 84 -54q33 -12 67 -12 q27 0 55 8q62 18 110 90t50 224v13q0 142 -44 211q-46 72 -106 92q-32 11 -63 11l-57 -9q-60 -18 -88 -46q-77 -84 -77 -243q0 -15 1 -31z" />
<glyph unicode="p" horiz-adv-x="1052" d="M0 -392v996q0 280 164 382t356 102q100 0 202 -38t162 -110q120 -156 120 -404t-120 -402t-320.5 -154t-291.5 160v-396q0 -56 -40 -96t-96 -40h-136zM272 528q0 -152 60 -228q60 -84 168 -84t168 84t60 234t-60 234t-170 84q-226 0 -226 -324z" />
<glyph unicode="q" horiz-adv-x="1024" d="M-24 534q0 254 116 406q60 72 160 110t204 38q192 0 356 -102t164 -382v-996h-136q-56 0 -96 40t-40 96v396q-52 -84 -128 -124q-80 -36 -176 -36q-192 0 -308 150t-116 404zM248 534q0 -150 60 -234t168 -84t168 84q60 76 60 230t-56 238q-60 84 -170 84t-170 -84 t-60 -234z" />
<glyph unicode="r" horiz-adv-x="628" d="M0 0v516q0 424 350 520q102 28 166 28h84v-284h-92q-116 0 -172 -56t-56 -176v-548h-280z" />
<glyph unicode="s" horiz-adv-x="964" d="M-24 340v12h272q8 -160 220 -160q72 0 124 28q48 28 48 76q0 72 -168 108q-72 12 -108 24q-212 52 -284 124q-80 72 -80 192q0 152 116 252q120 92 320 92t324 -92q116 -100 124 -260h-172q-76 0 -116 68l-32 32q-48 36 -132 36q-156 0 -156 -96q0 -64 208 -108 q48 -16 76 -16q204 -52 284 -120q76 -72 76 -192q0 -176 -124 -268t-358 -92q-462 0 -462 360z" />
<glyph unicode="t" horiz-adv-x="496" d="M32 200v1176h144q52 0 92 -40t40 -96v-180h164v-56q0 -60 -40 -98t-96 -38h-28v-592q0 -68 80 -68h84v-208q-53 -3 -109 -3q-84 0 -177 7q-154 12 -154 196z" />
<glyph unicode="u" horiz-adv-x="972" d="M0 440v624h280v-680q0 -96 56 -140t128 -44t130 44t58 140v544q0 56 38 96t98 40h140v-624q0 -284 -148 -372t-324 -88q-172 8 -314 96t-142 364z" />
<glyph unicode="v" horiz-adv-x="1080" d="M0 1064h296l212 -748l188 652q32 96 128 96h208l-376 -1064h-284z" />
<glyph unicode="w" horiz-adv-x="1544" d="M0 1064h272l168 -736l152 736h284l144 -736l148 640q24 96 128 96h176l-292 -1064h-280l-164 760l-164 -760h-280z" />
<glyph unicode="x" horiz-adv-x="1128" d="M0 0l348 548l-328 516h308l184 -320l204 344q36 72 120 72h240l-400 -616l352 -544h-320l-188 336l-196 -336h-324z" />
<glyph unicode="y" horiz-adv-x="1080" d="M0 1064h308l216 -752l188 656q24 96 128 96h192l-408 -1212q-48 -132 -120 -188q-72 -48 -236 -48h-56q-24 8 -60 8v220h76q80 0 126 38q29 24 29 65q0 25 -11 57z" />
<glyph unicode="z" horiz-adv-x="968" d="M0 0v212l572 632h-404q-56 0 -96 38t-40 94v88h872v-228l-564 -604h584v-232h-924z" />
<glyph unicode="{" horiz-adv-x="732" d="M0 576v200h36q116 0 168 56t52 188v240q0 132 20 192q39 98 188 124q64 12 114 12h82l40 -4v-200q-12 0 -24 2t-24 2q-100 0 -128 -40q-36 -36 -36 -152v-232q0 -144 -44 -202t-156 -86q112 -24 156 -86t44 -202v-232q0 -120 34 -154t130 -34h24l24 4v-116 q-4 -36 -34 -60t-62 -28q-56 0 -84 4t-76 12t-88 32q-56 28 -80 88q-20 68 -20 188v244q0 120 -52 188q-52 56 -164 56l-20 -4h-20z" />
<glyph unicode="|" horiz-adv-x="196" d="M0 -360v1984q0 48 36 84t88 36h64v-2104h-188z" />
<glyph unicode="}" horiz-adv-x="732" d="M0 -28h44q100 0 134 34t34 150v232q0 148 44 204q40 60 156 84q-116 24 -156 84q-44 52 -44 204v232q0 120 -34 156t-134 36h-44v112q0 36 30 62t72 26t70 -4t78 -12t100 -36t72 -86t22 -190v-244q0 -128 48 -188q52 -52 168 -52h40v-200h-36q-116 0 -172 -56 q-48 -56 -48 -184v-244q0 -132 -22 -186t-78 -90q-96 -48 -272 -48h-36q-16 4 -36 4v200z" />
<glyph unicode="~" horiz-adv-x="580" d="M0 420v120q0 76 72 100q56 20 122 -2t132 -46t126 -28t104 56q0 -84 -6 -138t-72 -66t-132 14t-130 48t-122 18t-94 -76z" />
<glyph unicode="&#xa2;" horiz-adv-x="980" d="M-24 532q0 264 128 412t364 148h48q24 -8 52 -8l44 160h104l-52 -184q120 -36 192 -132q60 -96 76 -244h-268q-8 48 -24 84q-20 28 -48 60l-172 -616h4q20 -4 44 -4q88 0 134 46t66 150h268q-12 -200 -136 -314t-332 -114h-47t-61 8l-56 -208h-104l64 228 q-144 64 -220 196q-68 136 -68 332zM252 528q0 -92 24 -164q16 -68 64 -112l168 608q-12 4 -24 4h-20q-108 0 -156 -84q-56 -88 -56 -252z" />
<glyph unicode="&#xa3;" horiz-adv-x="1112" d="M0 208q144 100 184 220h-184v176h200q-16 72 -24 100h-176v176h128q-16 72 -16 140q0 176 128 288q132 108 314 108t304 -92t146 -276l-144 -20q-84 -12 -112 26t-32 50q-52 100 -152 100t-140 -56q-48 -56 -48 -118t24 -150h192q24 0 80 -8t56 -104v-64h-280 q20 -96 20 -100h176q32 0 56 -30t24 -66l4 -80h-280q-28 -76 -124 -184q52 24 118 24t210 -36q80 -16 104 -16q72 0 200 56l104 -228q-116 -56 -268 -60q-92 0 -244 38t-204 38q-120 0 -240 -80z" />
<glyph unicode="&#xa7;" horiz-adv-x="736" d="M-24 750q0 74 28 154q28 56 100 104q-32 28 -52 80q-20 32 -20 88q0 100 76 170t216 70t220 -70t100 -182l-96 -12q-120 -24 -134 40t-82 64q-48 0 -72 -22t-24 -54t26 -58t158 -114t164 -120q56 -48 92 -108q28 -64 28 -126t-34 -122t-98 -104q88 -96 88 -200t-84 -176 q-72 -72 -228 -72t-232 72q-88 64 -104 196l60 8q80 8 102 -10t86 -74q36 -36 88 -36t80 28q28 20 28 60t-26 66t-186 130t-224 184q-44 72 -44 146zM156 808q0 -80 96 -144l208 -144q64 57 64 108q0 28 -16 52q-28 32 -92 80l-196 148q-20 -8 -42 -38t-22 -62z" />
<glyph unicode="&#xa8;" horiz-adv-x="688" d="M0 904v48q0 32 64 68q24 16 44 36q24 40 32 88q8 36 -44 36h-92v148q0 88 96 88h156v-228q0 -124 -68 -196t-188 -88zM400 904v48q0 32 60 68q67 38 80 124q0 12 -6 24t-38 12h-92v148q0 88 92 88h160v-228q0 -116 -64 -192q-72 -76 -192 -92z" />
<glyph unicode="&#xa9;" horiz-adv-x="480" d="M0 1192q0 96 68 164q36 36 72 52q56 16 92 16q78 0 160 -68q28 -40 48 -76q20 -48 20 -90t-14 -76t-54 -82q-48 -40 -76 -52q-56 -16 -90 -16t-80 16t-78 52q-68 60 -68 160zM36 1194q0 -26 16 -74q20 -44 44 -60q16 -24 60 -44q36 -12 74 -12t74 12q12 8 30 18t30 26 q20 16 44 60q12 36 12 76q0 76 -56 132q-12 12 -30 22t-30 22q-36 12 -74 12t-74 -12q-44 -24 -60 -44q-16 -12 -26 -30t-18 -30q-16 -48 -16 -74zM104 1192q0 64 32 104q36 36 92 36t86 -28t30 -68h-32q-12 0 -28 16q0 -4 -12 20q-24 12 -40 12q-72 0 -72 -92t72 -92 q20 0 40 12q16 24 20 40h52q0 -48 -36 -72q-28 -28 -80 -28q-124 0 -124 140z" />
<glyph unicode="&#xaa;" horiz-adv-x="436" d="M-24 1034q0 86 48 120t120 46q24 8 56 8q84 12 84 52q0 28 -30 38t-54 10q-68 0 -80 -40h-128q8 60 54 104t152 44t158 -40q60 -36 60 -108v-176q0 -160 -98 -190t-170 -30t-122 38t-50 124zM100 1036q0 -24 20 -44q24 -16 64 -16t72 32t32 88v48q-20 -8 -38 -16t-38 -8 l-48 -12q-32 -8 -48 -24q-16 -24 -16 -48z" />
<glyph unicode="&#xad;" horiz-adv-x="576" d="M0 420v116q0 108 108 108h444v-224h-552z" />
<glyph unicode="&#xae;" horiz-adv-x="480" d="M0 1192q0 56 30 116t86 84q48 32 104 32q100 0 172 -72q36 -32 48 -72q20 -48 20 -90t-20 -86q-41 -91 -124 -124q-56 -16 -94 -16q-81 0 -158 68q-64 72 -64 160zM36 1194q0 -64 56 -134q24 -24 64 -44q36 -12 72 -12t72 12q80 40 104 104q16 32 16 72q0 80 -56 136 q-20 20 -60 44q-36 12 -74 12t-74 -12q-16 -12 -32 -20q-40 -20 -72 -84q-16 -48 -16 -74zM132 1072v228q0 24 28 24h96q44 0 62 -16t18 -50q0 -54 -36 -66q16 -8 24 -16q8 -16 8 -36v-52q0 -16 12 -16h-60q-4 12 -4 16v44q-8 24 -12 32q-8 8 -28 8h-56v-100h-52zM184 1216 h64q20 0 28 6t8 26t-8 24q-12 12 -28 12h-64v-68z" />
<glyph unicode="&#xb1;" horiz-adv-x="792" d="M0 220v64q0 88 88 88h668v-152h-756zM0 768v68q0 24 20 52t68 28h196v256h96q88 0 88 -88v-168h288v-148h-288v-256h-184v256h-284z" />
<glyph unicode="&#xb2;" horiz-adv-x="344" d="M0 960q0 60 26 104t86 88q4 0 12 6t20 14q88 56 88 100q0 64 -68 64q-72 0 -72 -80v-4h-48q-40 0 -32 48q12 44 48 80t106 36t116 -40t46 -94t-22 -88t-66 -64t-78 -50t-34 -40h196v-80h-324z" />
<glyph unicode="&#xb3;" horiz-adv-x="348" d="M4 1100v4h88q0 -40 16 -60q20 -16 56 -16q72 0 72 68q0 32 -20 52q-32 16 -68 16h-12v60h8q80 0 80 64q0 24 -16 40t-44 16q-64 0 -64 -68v-4h-48q-40 0 -34 40t40 72t104 32t112 -34t42 -76t-12 -66q-32 -32 -44 -36q72 -27 72 -101.5t-44 -110.5q-56 -40 -130 -40 t-114 40q-40 32 -40 108z" />
<glyph unicode="&#xb4;" horiz-adv-x="392" d="M0 1164l112 204q32 48 84 48h180l-244 -252h-132z" />
<glyph unicode="&#xb5;" horiz-adv-x="916" d="M0 -380v1372h260v-632q0 -92 56 -134t122 -42t120 42t54 134v508q0 48 38 86t90 38h136v-580q0 -268 -140 -350t-304 -82q-123 10 -172 20v-252q0 -52 -38 -90t-86 -38h-136z" />
<glyph unicode="&#xba;" horiz-adv-x="472" d="M-24 1138q0 134 60 202q48 60 128 70t148 -10q76 -32 108 -104q32 -60 32 -166t-48 -170t-120 -80q-64 -20 -130 -4t-106 52q-72 76 -72 210zM104 1136q4 -88 36 -120q24 -32 102 -30t78 152t-76 156t-100 -22q-44 -48 -40 -136z" />
<glyph unicode="&#xbc;" horiz-adv-x="832" d="M0 0l592 1020q16 32 42 38t58 6h36l-616 -1064h-112zM32 888v76q36 0 72 24t52 76h28q56 0 56 -56v-480h-108v360h-100zM392 120v96l200 320h84q56 0 56 -56v-272h64v-88h-64v-120h-108v120h-232zM476 204h148v236z" />
<glyph unicode="&#xbd;" horiz-adv-x="824" d="M0 0l592 1020q16 32 42 38t58 6h36l-616 -1064h-112zM32 888v76q36 0 72 24t52 76h28q56 0 56 -56v-480h-108v360h-100zM396 0q0 72 40 132q24 44 96 96q12 12 36 24q108 68 108 120q0 36 -24 56q-20 24 -60 24t-60 -28q-24 -24 -24 -72v-8h-56q-52 0 -42 54t46 94 q56 52 144 52t138 -48t50 -116t-28 -100q-24 -44 -100 -92q-28 -24 -68 -46t-44 -46h236v-96h-388z" />
<glyph unicode="&#xbe;" horiz-adv-x="952" d="M0 688h104q0 -88 88 -88q44 0 66 22t22 60t-28 58q-24 24 -76 24q-4 0 -8 -2t-8 -2v76h12q44 0 68 16q24 24 24 56q0 68 -72 68q-44 0 -56 -20q-20 -20 -20 -60v-4h-56q-56 0 -42 50t42 78q48 44 130 44t138 -40q48 -44 48 -113t-68 -99q88 -44 88 -126t-56 -130 q-60 -44 -148 -44t-144 44q-48 48 -48 132zM116 0l588 1020q20 32 46 38t58 6h32l-616 -1064h-108zM508 120v96l200 320h80q56 0 56 -56v-272h64v-88h-64v-120h-104v120h-232zM592 204h148v236z" />
<glyph unicode="&#xbf;" horiz-adv-x="936" d="M-24 348q0 104 70 110t178 6q4 -116 56 -168q60 -76 194 -56t134 184q0 72 -42 120t-102 96q-120 92 -142 168t-22 208h252v-36q-4 -96 50 -146t118 -102t118 -122t54 -220t-94 -246t-226 -128q-132 -24 -268 -2t-220 106q-48 40 -78 102t-30 126zM292 1240v176h276v-276 h-176q-100 0 -100 100z" />
<glyph unicode="&#xc0;" d="M0 0l456 1284q36 92 136 92h224l500 -1376h-300l-92 284h-536l-88 -284h-300zM400 1724h176q64 0 84 -48l112 -204h-132zM464 516h384l-192 584z" />
<glyph unicode="&#xc1;" d="M0 0l456 1284q36 92 136 92h224l500 -1376h-300l-92 284h-536l-88 -284h-300zM464 516h384l-192 584zM596 1472l112 204q16 48 84 48h180l-244 -252h-132z" />
<glyph unicode="&#xc2;" d="M0 0l456 1284q36 92 136 92h224l500 -1376h-300l-92 284h-536l-88 -284h-300zM380 1472l128 152q64 84 150 84t154 -84l128 -152h-164l-120 136l-84 -92q-24 -24 -42 -34t-54 -10h-96zM464 516h384l-192 584z" />
<glyph unicode="&#xc3;" d="M0 0l456 1284q36 92 136 92h224l500 -1376h-300l-92 284h-536l-88 -284h-300zM408 1472v108q0 60 64 92q48 16 108 -4t118 -42t112 -26t98 48q0 -72 -6 -120t-66 -60t-120 12t-116 42t-108 16t-84 -66zM464 516h384l-192 584z" />
<glyph unicode="&#xc4;" d="M0 0l456 1284q36 92 136 92h224l500 -1376h-300l-92 284h-536l-88 -284h-300zM384 1472v184h116q68 0 68 -68v-116h-184zM464 516h384l-192 584zM748 1472v184h116q64 0 64 -68v-116h-180z" />
<glyph unicode="&#xc5;" horiz-adv-x="1384" d="M8 0l456 1280q32 92 136 92h224l496 -1372h-296l-96 276h-532l-92 -276h-296zM472 508h380l-192 588zM516 1554q0 30 12 62q16 32 32 44q12 16 42 30t58 14t60 -14t48 -28t30 -46t14 -60t-14 -58t-30 -42q-44 -44 -104 -44q-16 0 -48 8q-32 16 -48 28q-24 12 -38 44 t-14 62zM588 1556q0 -32 22 -56t54 -24t56 24q20 24 20 56t-20 60q-24 24 -56 24t-56 -24q-20 -28 -20 -60z" />
<glyph unicode="&#xc6;" horiz-adv-x="2144" d="M0 0l876 1280q24 40 72 66t92 26h968v-240h-716v-292h536v-88q-4 -60 -46 -102t-102 -42h-388v-356h752v-252h-1032v284h-532l-184 -284h-296zM632 512h380v584z" />
<glyph unicode="&#xc7;" horiz-adv-x="1288" d="M-24 692q0 356 170 540t494 184q264 0 416 -130t172 -362h-172q-96 0 -136 84q-28 52 -68 92q-80 60 -212 60q-184 0 -282 -120t-98 -348t96 -348q92 -124 276 -124q258 0 320 256h276q-20 -240 -180 -376q-164 -132 -432 -132q-312 0 -476 188q-164 180 -164 536z M332 -156q0 64 72 92q52 20 114 0t126 -42t122 -26t102 44q0 -72 -6 -130t-78 -74q-56 -8 -120 16t-126 44t-116 16t-90 -72v132z" />
<glyph unicode="&#xc8;" horiz-adv-x="1048" d="M0 0v1232q0 60 42 102t102 42h856v-236h-720v-296h536v-92q0 -60 -42 -102t-102 -42h-392v-352h720v-256h-1000zM256 1724h180q32 0 52 -18t32 -30l112 -204h-132z" />
<glyph unicode="&#xc9;" horiz-adv-x="1048" d="M0 0v1232q0 60 42 102t102 42h856v-236h-720v-296h536v-92q0 -60 -42 -102t-102 -42h-392v-352h720v-256h-1000zM452 1472l112 204q32 48 84 48h180l-244 -252h-132z" />
<glyph unicode="&#xca;" horiz-adv-x="1048" d="M0 0v1232q0 60 42 102t102 42h856v-236h-720v-296h536v-92q0 -60 -42 -102t-102 -42h-392v-352h720v-256h-1000zM256 1472l128 152q64 84 150 84t154 -84l128 -152h-160l-124 136l-80 -92q-24 -24 -44 -34t-56 -10h-96z" />
<glyph unicode="&#xcb;" horiz-adv-x="1048" d="M0 0v1232q0 60 42 102t102 42h856v-236h-720v-296h536v-92q0 -60 -42 -102t-102 -42h-392v-352h720v-256h-1000zM228 1472v184h112q68 0 68 -68v-116h-180zM592 1472v184h112q68 0 68 -68v-116h-180z" />
<glyph unicode="&#xcc;" horiz-adv-x="296" d="M-144 1724h176q36 0 54 -18l30 -30l112 -204h-132zM0 0v1232q0 60 42 102t102 42h140v-1376h-284z" />
<glyph unicode="&#xcd;" horiz-adv-x="472" d="M0 0v1232q0 60 42 102t102 42h140v-1376h-284zM80 1472l112 204q16 48 84 48h176l-240 -252h-132z" />
<glyph unicode="&#xce;" horiz-adv-x="440" d="M-132 1472l128 152q60 84 144 84t156 -84l124 -152h-160l-120 136l-84 -92q-44 -44 -96 -44h-92zM0 0v1232q0 60 42 102t102 42h140v-1376h-284z" />
<glyph unicode="&#xcf;" horiz-adv-x="480" d="M-84 1472v184h112q68 0 68 -68v-116h-180zM44 0v1232q0 60 42 102t102 42h140v-1376h-284zM276 1472v184h116q68 0 68 -68v-116h-184z" />
<glyph unicode="&#xd0;" horiz-adv-x="1516" d="M0 596v180h280v452q0 56 42 100t102 44h392q628 0 628 -688q0 -188 -58 -332t-166 -228q-84 -68 -184 -96t-296 -28h-460v596h-280zM556 248h224q196 0 288 104q88 104 88 334t-84 338t-256 108h-260v-356h156q120 0 120 -120v-60h-276v-348z" />
<glyph unicode="&#xd1;" horiz-adv-x="1192" d="M0 0v1232q0 60 42 102t102 42h152l560 -944v944h280v-1376h-292l-564 948v-948h-280zM348 1480v108q0 64 56 84t116 2t118 -40t112 -26t98 48q0 -72 -6 -120t-66 -60t-120 12t-116 42t-108 16t-84 -66z" />
<glyph unicode="&#xd2;" d="M-24 688q0 336 176 532q188 196 490 196t494 -196q180 -200 180 -532t-180 -528q-184 -192 -494 -192t-490 192q-176 192 -176 528zM260 688q0 -232 100 -354t282 -122t286 126t104 350t-104 356q-104 124 -286 124t-282 -124t-100 -356zM316 1724h180q32 0 52 -18 t32 -30l108 -204h-128z" />
<glyph unicode="&#xd3;" d="M-24 688q0 336 176 532q188 196 490 196t494 -196q180 -200 180 -532t-180 -528q-184 -192 -494 -192t-490 192q-176 192 -176 528zM260 688q0 -232 100 -354t282 -122t286 126t104 350t-104 356q-104 124 -286 124t-282 -124t-100 -356zM540 1472l112 204q16 48 84 48 h176l-244 -252h-128z" />
<glyph unicode="&#xd4;" d="M-24 688q0 336 176 532q188 196 490 196t494 -196q180 -200 180 -532t-180 -528q-184 -192 -494 -192t-490 192q-176 192 -176 528zM260 688q0 -232 100 -354t282 -122t286 126t104 350t-104 356q-104 124 -286 124t-282 -124t-100 -356zM364 1472l128 152q64 84 150 84 t154 -84l128 -152h-160l-124 136l-80 -92q-24 -24 -44 -34t-56 -10h-96z" />
<glyph unicode="&#xd5;" d="M-24 688q0 336 176 532q188 196 490 196t494 -196q180 -200 180 -532t-180 -528q-184 -192 -494 -192t-490 192q-176 192 -176 528zM260 688q0 -232 100 -354t282 -122t286 126t104 350t-104 356q-104 124 -286 124t-282 -124t-100 -356zM392 1472v108q0 60 68 92 q48 16 108 -4t118 -42t112 -26t98 48q0 -72 -8 -120t-66 -60t-118 12t-118 44t-108 16t-86 -68z" />
<glyph unicode="&#xd6;" d="M-24 688q0 336 176 532q188 196 490 196t494 -196q180 -200 180 -532t-180 -528q-184 -192 -494 -192t-490 192q-176 192 -176 528zM260 688q0 -232 100 -354t282 -122t286 126t104 350t-104 356q-104 124 -286 124t-282 -124t-100 -356zM372 1472v184h112q68 0 68 -68 v-116h-180zM736 1472v184h112q68 0 68 -68v-116h-180z" />
<glyph unicode="&#xd8;" horiz-adv-x="1388" d="M-32 0l160 188q-152 184 -152 510t176 522q188 196 492 196q264 0 432 -144l92 108h156l-164 -192q156 -188 156 -510t-180 -518q-184 -192 -492 -192q-268 0 -432 136l-92 -104h-152zM260 688q0 -168 56 -284l584 668q-96 96 -268 96t-272 -124t-100 -356zM388 308 q96 -96 266 -96t274 126t104 350q0 172 -60 288z" />
<glyph unicode="&#xd9;" horiz-adv-x="1156" d="M0 488v748q0 56 42 100t102 44h144v-860q0 -160 60 -236q64 -72 202 -72t206 72q64 72 64 236v860h284v-892q0 -256 -144 -388q-132 -132 -408 -132t-408 132q-144 132 -144 388zM288 1724h180q32 0 52 -18t32 -30l112 -204h-132z" />
<glyph unicode="&#xda;" horiz-adv-x="1156" d="M0 488v740q0 60 42 106t102 46h144v-860q0 -160 60 -236q64 -72 202 -72t206 72q64 72 64 236v860h284v-892q0 -256 -144 -388q-132 -132 -408 -132t-408 132q-144 132 -144 388zM448 1472l108 204q32 48 84 48h180l-244 -252h-128z" />
<glyph unicode="&#xdb;" horiz-adv-x="1156" d="M0 488v748q0 56 42 100t102 44h144v-860q0 -160 60 -236q64 -72 202 -72t206 72q64 72 64 236v860h284v-892q0 -256 -144 -388q-132 -132 -408 -132t-408 132q-144 132 -144 388zM272 1472l128 152q64 84 150 84t154 -84l128 -152h-160l-124 136l-84 -92q-24 -24 -42 -34 t-54 -10h-96z" />
<glyph unicode="&#xdc;" horiz-adv-x="1156" d="M0 488v748q0 56 42 100t102 44h144v-860q0 -160 60 -236q64 -72 202 -72t206 72q64 72 64 236v860h284v-892q0 -256 -144 -388q-132 -132 -408 -132t-408 132q-144 132 -144 388zM280 1472v184h112q68 0 68 -68v-116h-180zM644 1472v184h112q68 0 68 -68v-116h-180z" />
<glyph unicode="&#xde;" horiz-adv-x="780" d="M0 0v1372q52 0 126 -8t74 -92v-208q56 24 112 28t116 4q156 0 236 -130t80 -282t-80 -280t-236 -128q-60 0 -116 4t-112 28v-208q0 -84 -74 -92t-126 -8zM192 686q0 -94 52 -158t126 -64t128 64t54 158t-54 160t-128 66t-126 -66t-52 -160z" />
<glyph unicode="&#xdf;" horiz-adv-x="1180" d="M0 -172v1128q4 192 142 326t330 134h176q208 0 320 -90t112 -258q0 -198 -164 -284q208 -92 208 -324q0 -204 -130 -310t-370 -106h-220v248h200q120 0 174 40t54 134t-52 142q-52 40 -176 40h-200v236h188q204 0 204 148q0 76 -48 112q-52 32 -156 32h-84 q-124 0 -180 -76t-56 -156v-1116h-272z" />
<glyph unicode="&#xe0;" horiz-adv-x="916" d="M-24 310q0 174 98 246t250 96q20 0 48 6t64 10q176 24 176 104q0 60 -62 78t-114 18q-129 0 -164 -76h-268q16 124 118 210t314 86t326 -78t114 -222v-364q0 -160 -58 -250t-140 -132q-121 -62 -342 -62q-144 0 -252 78t-108 252zM164 1412h176q52 0 84 -48l112 -204 h-128zM236 316q0 -52 36 -86t104 -34q112 0 176 64t64 176v100q-56 -28 -156 -52l-92 -20q-72 -20 -104 -52q-28 -44 -28 -96z" />
<glyph unicode="&#xe1;" horiz-adv-x="916" d="M-24 310q0 174 98 246t250 96q20 0 48 6t64 10q176 24 176 104q0 60 -62 78t-114 18q-129 0 -164 -76h-268q16 124 118 210t314 86t326 -78t114 -222v-364q0 -160 -58 -250t-140 -132q-121 -62 -342 -62q-144 0 -252 78t-108 252zM236 316q0 -52 36 -86t104 -34 q112 0 176 64t64 176v100q-56 -28 -156 -52l-92 -20q-72 -20 -104 -52q-28 -44 -28 -96zM332 1160l112 204q32 48 84 48h180l-244 -252h-132z" />
<glyph unicode="&#xe2;" horiz-adv-x="916" d="M-24 310q0 174 98 246t250 96q20 0 48 6t64 10q176 24 176 104q0 60 -62 78t-114 18q-129 0 -164 -76h-268q16 124 118 210t314 86t326 -78t114 -222v-364q0 -160 -58 -250t-140 -132q-121 -62 -342 -62q-144 0 -252 78t-108 252zM144 1160l128 152q60 80 150 80t154 -80 l128 -152h-164l-120 132l-84 -88q-24 -24 -42 -34t-54 -10h-96zM236 316q0 -52 36 -86t104 -34q112 0 176 64t64 176v100q-56 -28 -156 -52l-92 -20q-72 -20 -104 -52q-28 -44 -28 -96z" />
<glyph unicode="&#xe3;" horiz-adv-x="916" d="M-24 310q0 174 98 246t250 96q20 0 48 6t64 10q176 24 176 104q0 60 -62 78t-114 18q-129 0 -164 -76h-268q16 124 118 210t314 86t326 -78t114 -222v-364q0 -160 -58 -250t-140 -132q-121 -62 -342 -62q-144 0 -252 78t-108 252zM172 1160v104q0 68 68 92q48 16 108 -4 t118 -40t112 -24t94 48q0 -76 -6 -122t-64 -58t-118 12t-118 42t-110 16t-84 -66zM236 316q0 -52 36 -86t104 -34q112 0 176 64t64 176v100q-56 -28 -156 -52l-92 -20q-72 -20 -104 -52q-28 -44 -28 -96z" />
<glyph unicode="&#xe4;" horiz-adv-x="916" d="M-24 310q0 174 98 246t250 96q20 0 48 6t64 10q176 24 176 104q0 60 -62 78t-114 18q-129 0 -164 -76h-268q16 124 118 210t314 86t326 -78t114 -222v-364q0 -160 -58 -250t-140 -132q-121 -62 -342 -62q-144 0 -252 78t-108 252zM152 1160v180h112q68 0 68 -68v-112 h-180zM236 316q0 -52 36 -86t104 -34q112 0 176 64t64 176v100q-56 -28 -156 -52l-92 -20q-72 -20 -104 -52q-28 -44 -28 -96zM516 1160v180h112q68 0 68 -68v-112h-180z" />
<glyph unicode="&#xe5;" horiz-adv-x="916" d="M-24 320q0 168 98 240t250 96q20 0 48 6t64 10q176 24 176 104q0 60 -62 78t-114 18q-129 0 -164 -76h-268q16 124 118 210t314 86t326 -78t114 -222v-364q0 -160 -58 -250t-152 -138t-256 -58t-270 42q-164 84 -164 296zM236 328q0 -60 36 -96q44 -32 104 -32 q112 0 176 64t64 176v100q-56 -28 -156 -50t-92 -22q-132 -35 -132 -140zM284 1288q0 32 14 64t30 44q12 16 44 30t74 14t90 -42q16 -14 30 -46t14 -60t-14 -58t-30 -42q-44 -44 -104 -44q-24 0 -48 12q-28 4 -44 24q-28 16 -40 48q-16 24 -16 56zM356 1292q0 -32 22 -56 t54 -24t56 24q20 24 20 56t-20 60q-24 24 -56 24t-56 -24q-20 -28 -20 -60z" />
<glyph unicode="&#xe6;" horiz-adv-x="1648" d="M-24 308q0 164 98 234t246 94q40 0 112 16q180 16 180 100q0 32 -14 42t-34 22q-36 28 -124 28t-136 -32q-20 -20 -32 -44h-268q16 128 108 200q116 92 324 92t320 -76q28 -20 32 -24q116 100 300 100q232 0 360 -140q124 -144 124 -404v-68h-676q0 -120 56 -182t152 -62 q60 0 116 28q44 32 68 88h272q-44 -164 -166 -252t-316 -88t-318 124q-104 -84 -244 -104t-232 -20q-308 0 -308 328zM236 312q0 -60 36 -88q36 -36 100 -36q116 0 180 66t64 170v100q-77 -41 -226 -68l-22 -4q-72 -20 -102 -50t-30 -90zM896 624h396q0 96 -52 156 q-52 52 -144 52t-144 -52q-52 -60 -56 -156z" />
<glyph unicode="&#xe7;" horiz-adv-x="984" d="M-24 534q0 262 126 408t360 146t366 -144q72 -88 104 -204h-280q-20 40 -40 60q-52 56 -148 56q-216 0 -216 -322t228 -322q68 0 116 28q12 4 22 14l22 22q35 52 104 52h200q-44 -168 -168 -258t-312 -90q-228 0 -356 146t-128 408zM232 -120q0 72 68 92q48 20 108 0 t118 -42t112 -24t98 46q0 -72 -6 -120t-66 -60t-120 12t-118 44t-108 18t-86 -70v104z" />
<glyph unicode="&#xe8;" horiz-adv-x="1000" d="M-24 534q0 262 126 408t360 146t366 -144q128 -148 128 -412v-44q0 -20 -4 -28h-692q4 -124 60 -184q52 -64 156 -64q68 0 116 28q12 4 22 14l22 22q4 12 30 32t74 20h200q-44 -168 -168 -258t-312 -90q-228 0 -356 146t-128 408zM204 1412h176q36 0 56 -18t32 -30 l108 -204h-128zM260 640h408q-16 216 -204 216q-88 0 -144 -56t-60 -160z" />
<glyph unicode="&#xe9;" horiz-adv-x="1000" d="M-24 534q0 262 126 408t360 146t366 -144q128 -148 128 -412v-44q0 -20 -4 -28h-692q4 -124 60 -184q52 -64 156 -64q68 0 116 28q12 4 22 14l22 22q4 12 30 32t74 20h200q-44 -168 -168 -258t-312 -90q-228 0 -356 146t-128 408zM260 640h408q-16 216 -204 216 q-88 0 -144 -56t-60 -160zM372 1160l112 204q32 48 84 48h180l-244 -252h-132z" />
<glyph unicode="&#xea;" horiz-adv-x="1000" d="M-24 534q0 262 126 408t360 146t366 -144q128 -148 128 -412v-44q0 -20 -4 -28h-692q4 -124 60 -184q52 -64 156 -64q68 0 116 28q12 4 22 14l22 22q4 12 30 32t74 20h200q-44 -168 -168 -258t-312 -90q-228 0 -356 146t-128 408zM184 1160l128 152q60 80 150 80t154 -80 l128 -152h-160l-124 132l-84 -88q-24 -24 -42 -34t-54 -10h-96zM260 640h408q-16 216 -204 216q-88 0 -144 -56t-60 -160z" />
<glyph unicode="&#xeb;" horiz-adv-x="1000" d="M-24 534q0 262 126 408t360 146t366 -144q128 -148 128 -412v-44q0 -20 -4 -28h-692q4 -124 60 -184q52 -64 156 -64q68 0 116 28q12 4 22 14l22 22q4 12 30 32t74 20h200q-44 -168 -168 -258t-312 -90q-228 0 -356 146t-128 408zM192 1160v180h112q68 0 68 -68v-112 h-180zM260 640h408q-16 216 -204 216q-88 0 -144 -56t-60 -160zM556 1160v180h112q68 0 68 -68v-112h-180z" />
<glyph unicode="&#xec;" horiz-adv-x="364" d="M-156 1408h172q55 0 84 -44l112 -204h-132zM24 0v1064h144q56 0 96 -40t40 -96v-928h-280z" />
<glyph unicode="&#xed;" horiz-adv-x="364" d="M24 0v1064h144q56 0 96 -40t40 -96v-928h-280zM76 1160l108 204q29 44 84 44h180l-244 -248h-128z" />
<glyph unicode="&#xee;" horiz-adv-x="364" d="M-112 1160l128 148q60 84 146 84t158 -84l124 -148h-160l-124 132l-80 -92q-40 -40 -96 -40h-96zM24 0v1064h144q56 0 96 -40t40 -96v-928h-280z" />
<glyph unicode="&#xef;" horiz-adv-x="364" d="M-104 1160v180h112q68 0 68 -68v-112h-180zM28 0v1064h140q56 0 96 -40t40 -96v-928h-276zM256 1160v180h116q64 0 64 -68v-112h-180z" />
<glyph unicode="&#xf1;" horiz-adv-x="972" d="M0 0v624q0 272 142 364t314 100q176 0 324 -92t148 -372v-624h-140q-60 0 -98 38t-38 98v544q0 96 -58 140t-130 44t-128 -44t-56 -140v-680h-280zM216 1156v108q0 60 64 92q48 16 108 -4t118 -40t112 -24t98 48q0 -76 -6 -124t-66 -60t-120 12t-116 44t-108 16t-84 -68z " />
<glyph unicode="&#xf2;" horiz-adv-x="1000" d="M-24 532q0 268 124 408q104 120 268 142t296 -26q152 -60 224 -208q68 -132 68 -284t-28 -244t-72 -160q-100 -132 -244 -160q-132 -36 -266 -6t-216 102t-118 194t-36 242zM204 1412h180q32 0 52 -18t32 -30l108 -204h-128zM248 526q8 -182 68 -254q24 -32 84 -54 t122 -4t110 90t50 224t-44 224t-106 92t-120 2t-88 -46q-84 -92 -76 -274z" />
<glyph unicode="&#xf3;" horiz-adv-x="1000" d="M-24 532q0 268 124 408q104 120 268 142t296 -26q152 -60 224 -208q68 -132 68 -284t-28 -244t-72 -160q-100 -132 -244 -160q-132 -36 -266 -6t-216 102t-118 194t-36 242zM248 526q8 -182 68 -254q24 -32 84 -54t122 -4t110 90t50 224t-44 224t-106 92t-120 2t-88 -46 q-84 -92 -76 -274zM372 1160l112 204q32 48 84 48h180l-244 -252h-132z" />
<glyph unicode="&#xf4;" horiz-adv-x="1000" d="M-24 532q0 268 124 408q104 120 268 142t296 -26q152 -60 224 -208q68 -132 68 -284t-28 -244t-72 -160q-100 -132 -244 -160q-132 -36 -266 -6t-216 102t-118 194t-36 242zM184 1160l128 152q60 80 150 80t154 -80l128 -152h-160l-124 132l-84 -88q-24 -24 -42 -34 t-54 -10h-96zM248 526q8 -182 68 -254q24 -32 84 -54t122 -4t110 90t50 224t-44 224t-106 92t-120 2t-88 -46q-84 -92 -76 -274z" />
<glyph unicode="&#xf5;" horiz-adv-x="1000" d="M-24 532q0 268 124 408q104 120 268 142t296 -26q152 -60 224 -208q68 -132 68 -284t-28 -244t-72 -160q-100 -132 -244 -160q-132 -36 -266 -6t-216 102t-118 194t-36 242zM212 1160v104q0 68 68 92q48 16 108 -4t118 -40t112 -24t98 48q0 -76 -6 -122t-66 -58t-120 12 t-118 42t-110 16t-84 -66zM248 526q8 -182 68 -254q24 -32 84 -54t122 -4t110 90t50 224t-44 224t-106 92t-120 2t-88 -46q-84 -92 -76 -274z" />
<glyph unicode="&#xf6;" horiz-adv-x="1000" d="M-24 532q0 268 124 408q104 120 268 142t296 -26q152 -60 224 -208q68 -132 68 -284t-28 -244t-72 -160q-100 -132 -244 -160q-132 -36 -266 -6t-216 102t-118 194t-36 242zM192 1160v180h112q68 0 68 -68v-112h-180zM248 526q8 -182 68 -254q24 -32 84 -54t122 -4 t110 90t50 224t-44 224t-106 92t-120 2t-88 -46q-84 -92 -76 -274zM556 1160v180h112q68 0 68 -68v-112h-180z" />
<glyph unicode="&#xf7;" horiz-adv-x="948" d="M0 592v96q0 88 88 88h816v-184h-904zM320 386q0 54 38 92t94 38q128 0 128 -128q0 -56 -38 -94t-92 -38t-92 38t-38 92zM320 980q0 52 38 92t92 40t92 -40t38 -92t-38 -90t-92 -38t-92 38t-38 90z" />
<glyph unicode="&#xf8;" horiz-adv-x="1052" d="M-76 0l144 172q-96 133 -96 372q0 108 32 216t92 180q104 120 268 142q247 33 416 -94l68 76h156l-144 -168q20 -36 28 -48q64 -136 64 -286q0 -253 -100 -398q-96 -132 -244 -164q-124 -36 -252 -10t-212 94l-68 -84h-152zM248 610q-12 -122 12 -218l348 400 q-68 76 -160 62t-128 -54q-60 -68 -72 -190zM312 276q24 -32 84 -56t122 -6t110 90t50 198t-14 174z" />
<glyph unicode="&#xf9;" horiz-adv-x="972" d="M0 440v624h280v-680q0 -96 56 -140t128 -44t130 44t58 140v544q0 56 38 96t98 40h140v-624q0 -284 -148 -372t-324 -88q-172 8 -314 96t-142 364zM204 1412h180q36 0 54 -18l30 -30l112 -204h-132z" />
<glyph unicode="&#xfa;" horiz-adv-x="972" d="M0 440v624h280v-680q0 -96 56 -140t128 -44t130 44t58 140v544q0 56 38 96t98 40h140v-624q0 -284 -148 -372t-324 -88q-172 8 -314 96t-142 364zM376 1160l112 204q4 12 26 30t58 18h176l-244 -252h-128z" />
<glyph unicode="&#xfb;" horiz-adv-x="972" d="M0 440v624h280v-680q0 -96 56 -140t128 -44t130 44t58 140v544q0 56 38 96t98 40h140v-624q0 -284 -148 -372t-324 -88q-172 8 -314 96t-142 364zM184 1160l132 152q56 80 144 80t160 -80l124 -152h-160l-120 132l-84 -88q-24 -24 -44 -34t-56 -10h-96z" />
<glyph unicode="&#xfc;" horiz-adv-x="972" d="M0 440v624h280v-680q0 -96 56 -140t128 -44t130 44t58 140v544q0 56 38 96t98 40h140v-624q0 -284 -148 -372t-324 -88q-172 8 -314 96t-142 364zM192 1160v180h116q68 0 68 -68v-112h-184zM556 1160v180h112q68 0 68 -68v-112h-180z" />
<glyph unicode="&#x2000;" horiz-adv-x="872" />
<glyph unicode="&#x2001;" horiz-adv-x="1744" />
<glyph unicode="&#x2002;" horiz-adv-x="872" />
<glyph unicode="&#x2003;" horiz-adv-x="1744" />
<glyph unicode="&#x2004;" horiz-adv-x="581" />
<glyph unicode="&#x2005;" horiz-adv-x="436" />
<glyph unicode="&#x2006;" horiz-adv-x="290" />
<glyph unicode="&#x2007;" horiz-adv-x="290" />
<glyph unicode="&#x2008;" horiz-adv-x="218" />
<glyph unicode="&#x2009;" horiz-adv-x="348" />
<glyph unicode="&#x200a;" horiz-adv-x="96" />
<glyph unicode="&#x2010;" horiz-adv-x="576" d="M0 420v116q0 108 108 108h444v-224h-552z" />
<glyph unicode="&#x2011;" horiz-adv-x="576" d="M0 420v116q0 108 108 108h444v-224h-552z" />
<glyph unicode="&#x2012;" horiz-adv-x="576" d="M0 420v116q0 108 108 108h444v-224h-552z" />
<glyph unicode="&#x2013;" horiz-adv-x="1048" d="M0 420v116q0 108 200 108h824v-224h-1024z" />
<glyph unicode="&#x2014;" horiz-adv-x="2072" d="M0 420v116q0 108 401 108h1647v-224h-2048z" />
<glyph unicode="&#x202f;" horiz-adv-x="348" />
<glyph unicode="&#x205f;" horiz-adv-x="436" />
<glyph unicode="&#xe000;" horiz-adv-x="1160" d="M0 0v1160h1160v-1160h-1160z" />
</font>
</defs>
</svg>
